<svg width="48" height="48" viewBox="0 0 48 48" fill="none" xmlns="http://www.w3.org/2000/svg">
<path fill-rule="evenodd" clip-rule="evenodd" d="M31.7365 9.95C31.374 9.75097 31.2415 9.29581 31.4406 8.93338C31.6395 8.57094 32.0948 8.43847 32.4572 8.6375C33.6344 9.28588 34.7367 10.0678 35.7392 10.9692C36.252 11.4302 36.7388 11.9224 37.1963 12.4438L37.1466 11.8967C37.1094 11.4857 37.4124 11.1223 37.8234 11.0851C38.2344 11.0479 38.5977 11.3509 38.6349 11.7619L38.923 14.9351C38.9602 15.3461 38.6572 15.7094 38.2462 15.7467C38.139 15.7563 38.035 15.7429 37.9392 15.7104L35.2046 14.876C34.8099 14.7563 34.5869 14.3391 34.7066 13.9444C34.8264 13.5496 35.2435 13.3266 35.6382 13.4464L36.2411 13.6303C35.7733 13.0787 35.2705 12.562 34.7372 12.0824C33.8196 11.2574 32.8118 10.5423 31.7365 9.95ZM11.8974 10.8532C11.4864 10.8904 11.123 10.5874 11.0859 10.1764C11.0486 9.76541 11.3516 9.40203 11.7626 9.36491L14.9358 9.07681C15.3468 9.03959 15.7102 9.34259 15.7473 9.75359C15.757 9.86084 15.7435 9.96472 15.711 10.0605L14.8766 12.795C14.7569 13.1898 14.3397 13.4128 13.945 13.293C13.5503 13.1733 13.3272 12.7561 13.447 12.3614L13.631 11.7587C13.0811 12.225 12.5659 12.7261 12.0878 13.2574C11.2607 14.1765 10.544 15.1862 9.95073 16.2633C9.7517 16.6258 9.29655 16.7582 8.93411 16.5592C8.57167 16.3602 8.4392 15.905 8.63823 15.5426C9.28773 14.3632 10.0713 13.2592 10.9745 12.2554C11.4342 11.7444 11.9249 11.2593 12.4445 10.8035L11.8974 10.8532ZM10.8538 36.1024C10.891 36.5134 10.588 36.8768 10.177 36.9139C9.76605 36.9511 9.40267 36.6481 9.36555 36.2371L9.07745 33.064C9.04023 32.653 9.34323 32.2897 9.75423 32.2525C9.86148 32.2427 9.96536 32.2562 10.0612 32.2888L12.7958 33.1231C13.1905 33.2428 13.4135 33.66 13.2938 34.0547C13.174 34.4495 12.7569 34.6724 12.3622 34.5527L11.7567 34.368C12.2107 34.9039 12.6968 35.4061 13.211 35.8723C14.1381 36.7128 15.1638 37.443 16.264 38.0489C16.6265 38.248 16.759 38.7031 16.5599 39.0656C16.3609 39.428 15.9057 39.5605 15.5433 39.3614C14.3501 38.7043 13.23 37.9054 12.209 36.9797C11.7147 36.5316 11.2453 36.0553 10.8039 35.5524L10.8538 36.1024ZM36.103 37.1459C36.514 37.1087 36.8774 37.4117 36.9145 37.8227C36.9518 38.2337 36.6488 38.597 36.2378 38.6342L33.0646 38.9223C32.6536 38.9595 32.2902 38.6565 32.2531 38.2455C32.2434 38.1384 32.2569 38.0344 32.2894 37.9386L33.1238 35.2041C33.2435 34.8093 33.6607 34.5864 34.0554 34.7061C34.4501 34.8258 34.6731 35.243 34.5534 35.6377L34.369 36.2422C34.9426 35.7551 35.4802 35.2288 35.9784 34.6682C36.7782 33.7684 37.4728 32.7839 38.05 31.7358C38.2491 31.3734 38.7042 31.2409 39.0667 31.4399C39.4291 31.639 39.5616 32.0941 39.3625 32.4566C38.7298 33.6054 37.9704 34.6823 37.0975 35.6643C36.6181 36.2036 36.1031 36.7153 35.5548 37.1957L36.103 37.1459Z" fill="#E1EAFF"/>
<path fill-rule="evenodd" clip-rule="evenodd" d="M25.6801 16.9608C26.425 17.1381 27.1366 17.4335 27.7886 17.8349L29.1588 17.2264L30.7736 18.8412L30.1653 20.211C30.5669 20.8631 30.8623 21.575 31.0396 22.3201L32.4375 22.8581V25.1419L31.0393 25.6801C30.862 26.425 30.5666 27.1366 30.1652 27.7886L30.7737 29.1588L29.1589 30.7736L27.7891 30.1653C27.1369 30.5669 26.4251 30.8623 25.68 31.0396L25.142 32.4375H22.8582L22.32 31.0393C21.5751 30.862 20.8635 30.5666 20.2115 30.1652L18.8413 30.7737L17.2265 29.1589L17.8348 27.7891C17.4332 27.1369 17.1379 26.4251 16.9605 25.6799L15.5625 25.1419V22.8581L16.9606 22.32C17.1379 21.575 17.4332 20.8633 17.8348 20.2113L17.2264 18.8413L18.8412 17.2264L20.2114 17.8349C20.8634 17.4334 21.575 17.1381 22.3199 16.9608L22.8581 15.5625H25.1419L25.6801 16.9608Z" fill="#253A97"/>
<path fill-rule="evenodd" clip-rule="evenodd" d="M25.6801 16.9608C26.425 17.1381 27.1366 17.4335 27.7886 17.835L27.3876 18.0131C26.7356 17.6116 25.7183 17.1382 24.9733 16.9609L24.4352 15.5625H25.1418L25.6801 16.9608ZM28.6694 17.4437L29.1587 17.2264L30.7736 18.8412L30.1652 20.211C30.5669 20.8631 30.8622 21.575 31.0396 22.3201L32.4375 22.8581V25.1419L31.0393 25.6801C30.862 26.425 30.5666 27.1366 30.1652 27.7886L30.7737 29.1588L29.1588 30.7736L28.6695 30.5563L30.0669 29.1588L29.4584 27.7886C29.8599 27.1365 30.1552 26.425 30.3325 25.6801L31.7307 25.1419V22.8581L30.3328 22.32C30.1555 21.5749 29.8601 20.863 29.4585 20.2109L30.0668 18.8411L28.6694 17.4437ZM27.7891 30.1654C27.1368 30.567 26.4251 30.8623 25.68 31.0397L25.1419 32.4375H24.4352L24.9732 31.0396C25.7183 30.8623 26.7359 30.3889 27.388 29.9873L27.7891 30.1654ZM20.2114 30.1652L18.8413 30.7737L18.624 30.5564L19.9057 29.9872C20.0062 30.0489 20.1081 30.1084 20.2114 30.1652ZM18.6238 17.4437L18.8411 17.2264L20.2112 17.8349C20.108 17.8917 20.006 17.9511 19.9054 18.013L18.6238 17.4437Z" fill="#253A97"/>
<path d="M28.3081 24.512C28.6 22.1368 26.9111 19.9747 24.5359 19.6829C22.1607 19.3911 19.9987 21.08 19.7068 23.4552C19.415 25.8304 21.1039 27.9924 23.4791 28.2842C25.8543 28.5761 28.0163 26.8871 28.3081 24.512Z" fill="#E1EAFF"/>
<path fill-rule="evenodd" clip-rule="evenodd" d="M23.9999 19.6699C21.6078 19.6699 19.6689 21.6088 19.6689 24.0009C19.6689 26.393 21.6078 28.3319 23.9999 28.3319C24.1183 28.3319 24.2357 28.3269 24.3518 28.3176C22.1242 28.1385 20.3725 26.2746 20.3725 24.0009C20.3725 21.7272 22.1242 19.8632 24.3518 19.6842C24.2357 19.6749 24.1183 19.6699 23.9999 19.6699Z" fill="#E1EAFF"/>
<path d="M29.7085 7.48768C29.8661 4.33841 27.4409 1.65764 24.2916 1.50002C21.1423 1.3424 18.4616 3.76761 18.304 6.91688C18.1463 10.0662 20.5715 12.7469 23.7208 12.9045C26.8701 13.0622 29.5509 10.6369 29.7085 7.48768Z" fill="#E1EAFF"/>
<path fill-rule="evenodd" clip-rule="evenodd" d="M28.693 7.20788C28.693 8.37544 28.3424 9.46125 27.7408 10.3656C27.5086 10.7146 27.2391 11.0365 26.9377 11.3257C26.0264 12.2008 24.8252 12.7762 23.4924 12.8935C23.6596 12.9083 23.8288 12.9158 23.9999 12.9158C24.2772 12.9158 24.5499 12.896 24.8167 12.8577C24.8512 12.8528 24.8855 12.8475 24.9197 12.842C27.6348 12.4021 29.7079 10.047 29.7079 7.20778C29.7079 4.05544 27.1522 1.5 23.9999 1.5C23.8289 1.5 23.6597 1.5075 23.4925 1.52222C26.4072 1.77891 28.693 4.22644 28.693 7.20788Z" fill="#E1EAFF"/>
<path fill-rule="evenodd" clip-rule="evenodd" d="M24 7.75781C21.9439 7.75781 20.251 9.31575 20.0366 11.3151C21.0633 12.3059 22.4604 12.9154 23.9999 12.9153C24.2772 12.9153 24.5499 12.8955 24.8167 12.8572C26.0307 12.6832 27.1212 12.1271 27.963 11.3149C27.749 9.31519 26.0564 7.75781 24 7.75781Z" fill="#2B3990"/>
<path fill-rule="evenodd" clip-rule="evenodd" d="M23.4927 7.78978C25.8654 8.09128 26.8216 9.88659 27.0414 12.0382C27.3733 11.8287 27.6821 11.5861 27.9631 11.3149C27.749 9.31519 26.0565 7.75781 24 7.75781C23.8282 7.75781 23.6588 7.76869 23.4927 7.78978Z" fill="#2B3990"/>
<path d="M24 7.45647C25.113 7.45647 26.0153 6.55417 26.0153 5.44112C26.0153 4.32808 25.113 3.42578 24 3.42578C22.8869 3.42578 21.9846 4.32808 21.9846 5.44112C21.9846 6.55417 22.8869 7.45647 24 7.45647Z" fill="white"/>
<path fill-rule="evenodd" clip-rule="evenodd" d="M25.508 5.44112C25.508 6.46825 24.7396 7.31594 23.7463 7.44063C23.8294 7.45103 23.9141 7.45647 24 7.45647C25.113 7.45647 26.0154 6.55422 26.0154 5.44112C26.0154 4.32812 25.1131 3.42578 24 3.42578C23.9141 3.42578 23.8294 3.43112 23.7463 3.44162C24.7396 3.56631 25.508 4.414 25.508 5.44112Z" fill="white"/>
<path d="M40.7922 29.707C43.9446 29.707 46.5002 27.1514 46.5002 23.999C46.5002 20.8466 43.9446 18.291 40.7922 18.291C37.6398 18.291 35.0842 20.8466 35.0842 23.999C35.0842 27.1514 37.6398 29.707 40.7922 29.707Z" fill="#E1EAFF"/>
<path fill-rule="evenodd" clip-rule="evenodd" d="M45.4853 23.9991C45.4853 25.1666 45.1346 26.2525 44.533 27.1568C44.3008 27.5058 44.0313 27.8277 43.73 28.117C42.8186 28.992 41.6174 29.5674 40.2847 29.6847C40.4518 29.6995 40.621 29.707 40.7921 29.707C41.0694 29.707 41.3422 29.6872 41.609 29.6489C41.6434 29.644 41.6777 29.6388 41.712 29.6332C44.4271 29.1933 46.5001 26.8382 46.5001 23.999C46.5001 20.8465 43.9446 18.291 40.7921 18.291C40.6211 18.291 40.4519 18.2985 40.2848 18.3132C43.1994 18.5701 45.4853 21.0176 45.4853 23.9991Z" fill="#E1EAFF"/>
<path fill-rule="evenodd" clip-rule="evenodd" d="M40.7922 24.5488C38.7361 24.5488 37.0433 26.1068 36.8289 28.1061C37.8555 29.0969 39.2527 29.7064 40.7921 29.7063C41.0695 29.7063 41.3422 29.6865 41.609 29.6483C42.823 29.4743 43.9135 28.9181 44.7552 28.1059C44.5412 26.1063 42.8487 24.5488 40.7922 24.5488Z" fill="#2B3990"/>
<path fill-rule="evenodd" clip-rule="evenodd" d="M40.2849 24.5808C42.6576 24.8823 43.6138 26.6776 43.8336 28.8292C44.1655 28.6197 44.4743 28.3771 44.7553 28.1059C44.5413 26.1062 42.8487 24.5488 40.7923 24.5488C40.6204 24.5488 40.4511 24.5597 40.2849 24.5808Z" fill="#2B3990"/>
<path d="M40.7922 24.2475C41.9052 24.2475 42.8075 23.3452 42.8075 22.2321C42.8075 21.1191 41.9052 20.2168 40.7922 20.2168C39.6792 20.2168 38.7769 21.1191 38.7769 22.2321C38.7769 23.3452 39.6792 24.2475 40.7922 24.2475Z" fill="white"/>
<path fill-rule="evenodd" clip-rule="evenodd" d="M42.3002 22.2321C42.3002 23.2593 41.5319 24.107 40.5386 24.2316C40.6216 24.242 40.7064 24.2475 40.7923 24.2475C41.9053 24.2475 42.8076 23.3452 42.8076 22.2321C42.8076 21.1191 41.9053 20.2168 40.7923 20.2168C40.7063 20.2168 40.6216 20.2221 40.5386 20.2326C41.5319 20.3574 42.3002 21.2051 42.3002 22.2321Z" fill="white"/>
<path d="M7.45743 29.7043C10.6067 29.5624 13.0447 26.8945 12.9028 23.7452C12.761 20.5959 10.093 18.1579 6.94372 18.2998C3.79444 18.4416 1.35645 21.1096 1.49831 24.2589C1.64017 27.4082 4.30816 29.8462 7.45743 29.7043Z" fill="#E1EAFF"/>
<path fill-rule="evenodd" clip-rule="evenodd" d="M11.9013 23.999C11.9013 25.1666 11.5507 26.2524 10.9491 27.1567C10.7168 27.5057 10.4473 27.8276 10.146 28.117C9.23465 28.992 8.03343 29.5674 6.70068 29.6847C6.86784 29.6995 7.03706 29.707 7.20806 29.707C7.48537 29.707 7.75818 29.6872 8.0249 29.6489C8.05931 29.644 8.09362 29.6387 8.12784 29.6333C10.8429 29.1934 12.916 26.8383 12.916 23.999C12.916 20.8465 10.3605 18.291 7.20806 18.291C7.03706 18.291 6.86784 18.2985 6.70068 18.3132C9.61546 18.57 11.9013 21.0176 11.9013 23.999Z" fill="#E1EAFF"/>
<path fill-rule="evenodd" clip-rule="evenodd" d="M7.208 24.5488C5.15188 24.5488 3.45904 26.1068 3.24463 28.1061C4.27129 29.0969 5.66844 29.7064 7.20791 29.7063C7.48532 29.7063 7.75804 29.6865 8.02475 29.6483C9.23872 29.4743 10.3293 28.9181 11.171 28.1059C10.9571 26.1062 9.2645 24.5488 7.208 24.5488Z" fill="#2B3990"/>
<path fill-rule="evenodd" clip-rule="evenodd" d="M6.70068 24.5808C9.0734 24.8823 10.0296 26.6776 10.2494 28.8292C10.5813 28.6197 10.8901 28.3771 11.1711 28.1059C10.957 26.1062 9.26447 24.5488 7.20806 24.5488C7.03612 24.5488 6.86681 24.5597 6.70068 24.5808Z" fill="#2B3990"/>
<path d="M7.20797 24.2475C8.32101 24.2475 9.22331 23.3452 9.22331 22.2321C9.22331 21.1191 8.32101 20.2168 7.20797 20.2168C6.09493 20.2168 5.19263 21.1191 5.19263 22.2321C5.19263 23.3452 6.09493 24.2475 7.20797 24.2475Z" fill="white"/>
<path fill-rule="evenodd" clip-rule="evenodd" d="M8.716 22.2321C8.716 23.2593 7.94763 24.1069 6.95435 24.2316C7.03741 24.242 7.12216 24.2475 7.20803 24.2475C8.32103 24.2475 9.22338 23.3452 9.22338 22.2321C9.22338 21.1191 8.32113 20.2168 7.20803 20.2168C7.12206 20.2168 7.03741 20.2221 6.95435 20.2326C7.94772 20.3573 8.716 21.2051 8.716 22.2321Z" fill="white"/>
<path d="M24.0002 46.4999C27.1526 46.4999 29.7082 43.9444 29.7082 40.792C29.7082 37.6395 27.1526 35.084 24.0002 35.084C20.8478 35.084 18.2922 37.6395 18.2922 40.792C18.2922 43.9444 20.8478 46.4999 24.0002 46.4999Z" fill="#E1EAFF"/>
<path fill-rule="evenodd" clip-rule="evenodd" d="M28.6933 40.792C28.6933 41.9597 28.3426 43.0454 27.7411 43.9497C27.5088 44.2988 27.2393 44.6207 26.938 44.91C26.0266 45.7851 24.8254 46.3604 23.4927 46.4778C23.6598 46.4925 23.8291 46.5 24.0001 46.5C24.2775 46.5 24.5502 46.4802 24.817 46.442C24.8514 46.4371 24.8857 46.4318 24.9199 46.4262C27.635 45.9864 29.7081 43.6313 29.7081 40.792C29.7081 37.6395 27.1526 35.084 24.0001 35.084C23.8291 35.084 23.6599 35.0915 23.4928 35.1062C26.4075 35.3631 28.6933 37.8106 28.6933 40.792Z" fill="#E1EAFF"/>
<path fill-rule="evenodd" clip-rule="evenodd" d="M24.0002 41.3418C21.944 41.3418 20.2513 42.8997 20.0369 44.899C21.0635 45.8899 22.4607 46.4994 24.0001 46.4993C24.2775 46.4993 24.5502 46.4795 24.817 46.4412C26.031 46.2672 27.1215 45.7111 27.9632 44.8989C27.7493 42.8993 26.0567 41.3418 24.0002 41.3418Z" fill="#2B3990"/>
<path fill-rule="evenodd" clip-rule="evenodd" d="M23.4929 41.3738C25.8656 41.6753 26.8218 43.4706 27.0416 45.6221C27.3735 45.4127 27.6823 45.1701 27.9633 44.8989C27.7493 42.8992 26.0567 41.3418 24.0003 41.3418C23.8285 41.3417 23.6591 41.3527 23.4929 41.3738Z" fill="#2B3990"/>
<path d="M24.0002 41.0405C25.1133 41.0405 26.0155 40.1382 26.0155 39.0251C26.0155 37.9121 25.1133 37.0098 24.0002 37.0098C22.8872 37.0098 21.9849 37.9121 21.9849 39.0251C21.9849 40.1382 22.8872 41.0405 24.0002 41.0405Z" fill="white"/>
<path fill-rule="evenodd" clip-rule="evenodd" d="M25.5082 39.0251C25.5082 40.0522 24.7399 40.8999 23.7466 41.0246C23.8296 41.035 23.9144 41.0405 24.0003 41.0405C25.1133 41.0405 26.0156 40.1382 26.0156 39.0251C26.0156 37.9121 25.1133 37.0098 24.0003 37.0098C23.9143 37.0098 23.8296 37.0151 23.7466 37.0256C24.7399 37.1504 25.5082 37.9981 25.5082 39.0251Z" fill="white"/>
</svg>
